<?xml version="1.0" encoding="utf-8"?>
<svg id="master-artboard" viewBox="0 0 659.517578125 743.5433959960938" version="1.1" xmlns="http://www.w3.org/2000/svg" x="0px" y="0px" style="enable-background:new 0 0 1400 980;" width="659.517578125px" height="743.5433959960938px"><defs><style id="ee-google-fonts">@import url(https://fonts.googleapis.com/css?family=Rubik:300,300italic,400,400italic,500,500italic,700,700italic,900,900italic|Abel:400);</style><path id="text-path-0" d="M 276.3812255859375 615.3363647460938 A 100 48 0 0 1 692.25439453125 615.3363647460938 A 100 48 0 0 1 276.3812255859375 615.3363647460938 Z" style="fill: none; stroke: red; stroke-width: 2;"/></defs>








































<rect id="ee-background" x="0" y="0" width="659.517578125" height="743.5433959960938" style="fill: white; fill-opacity: 0; pointer-events: none;"/><g transform="matrix(0.5368778705596924, 0.00353151373565197, -0.00353151373565197, 0.5368778705596924, 55.107765197753906, -29.826936721801758)"><metadata> Svg Vector Icons : http://www.onlinewebfonts.com/icon </metadata><g><path d="M335.4,316c-5.6,0-11.1-2.7-14.5-7.7l-53.7-78.7c-5.5-8-3.4-19,4.6-24.4c8-5.5,19-3.4,24.4,4.6l53.7,78.7c5.5,8,3.4,19-4.6,24.4C342.2,315.1,338.8,316,335.4,316z" style="fill: rgb(255, 255, 255);"/><path d="M449.9,298.1c-8.5,0-15.9-6.1-17.3-14.7l-25.1-153.9c-1.6-9.6,5-18.6,14.5-20.2c9.6-1.6,18.6,5,20.2,14.5l25.1,153.9c1.6,9.6-5,18.6-14.5,20.2C451.8,298.1,450.8,298.1,449.9,298.1z" style="fill: rgb(255, 255, 255);"/><path d="M564.4,298.1c-0.8,0-1.6,0-2.4-0.2c-9.6-1.3-16.3-10.2-15-19.8l21.5-153.9c1.3-9.6,10.1-16.3,19.8-15c9.6,1.3,16.3,10.2,15,19.8L581.8,283C580.6,291.8,573.1,298.1,564.4,298.1z" style="fill: rgb(255, 255, 255);"/><path d="M671.8,316c-3.2,0-6.5-0.9-9.5-2.8c-8.2-5.2-10.6-16.1-5.3-24.3l60.8-94.8c5.2-8.1,16.1-10.5,24.3-5.3c8.2,5.2,10.5,16.1,5.3,24.3L686.6,308C683.2,313.2,677.6,316,671.8,316z" style="fill: rgb(255, 255, 255);"/><path d="M134.9,706.2c-1.7,0-3.4-0.2-5-0.7L22.5,673.2c-4.6-1.4-8.5-4.6-10.6-8.9C9.7,660,9.4,655,11,650.5l107.4-300.6c1.7-4.6,5.1-8.3,9.7-10.2c4.5-1.9,9.6-1.9,14.1,0.1l103.8,46.5c6.9,3.1,11.1,10.3,10.3,17.8c-14.5,145.6-102.6,287.9-106.4,293.9C146.6,703.1,140.9,706.2,134.9,706.2z M50.3,644.9l76.5,22.9c20.1-35,78.5-144.4,93-254.8l-74.7-33.5L50.3,644.9z" style="fill: rgb(255, 255, 255);"/><path d="M865.1,706.2c-5.4,0-10.7-2.5-14.1-7c-97.9-130.6-127.3-276.6-128.5-282.8c-1.4-7.1,1.7-14.3,7.8-18.2l89.5-57.3c4.2-2.7,9.3-3.4,14.1-2.2c4.8,1.3,8.8,4.6,11.1,9l143.2,282.7c2.2,4.2,2.5,9.2,0.9,13.7c-1.6,4.5-4.9,8.2-9.2,10.2l-107.4,50.1C870.1,705.6,867.6,706.2,865.1,706.2z M759.7,421.1c8.6,35.2,39.4,144.9,111,245.4l77.8-36.3L822.4,381L759.7,421.1z" style="fill: rgb(255, 255, 255);"/><path d="M768.4,734.8c-4.3,0-8.6-1.6-12-4.7c-81.2-75.7-215.6-199.5-230.3-209.2c-8.4-5.5-24.4-3.3-35-0.3c-9,17.7-34,60-72.4,70.5c-26.7,7.3-49.7,4-64.6-9.2c-11.7-10.3-17-25.8-14.6-42.4c3.3-22.9,17.4-39.8,25.7-48c1.8-14.7,7.1-44.8,21.5-61.3c19.3-22.1,80-57.1,86.8-61c1.2-0.7,2.4-1.2,3.8-1.6c2.7-0.8,67.4-19.4,115.5,0.6c32.3,13.5,53.3,27.1,62.9,34l82.8-6.6c9.4-0.8,18.1,6.4,18.9,16.1c0.8,9.7-6.4,18.1-16.1,18.9l-89.5,7.2c-4.5,0.4-9.1-1.1-12.7-4c-0.2-0.1-20.4-16.6-59.9-33.1c-32.8-13.6-80.3-2.4-90.2,0.1c-24.2,13.9-64.5,39.5-75.9,52.5c-7.4,8.5-12.4,33.2-13.6,48.1c-0.4,4.9-2.8,9.4-6.7,12.4c-0.1,0.1-16,13.1-18.5,30.6c-0.7,4.9,0.3,8.7,3.1,11.1c4.4,3.9,15.1,6.3,32.1,1.7c25.5-7,47.3-45.1,53-58c1.9-4.2,5.3-7.6,9.6-9.3c4.5-1.8,45.1-17,73.4,1.7c19.9,13.2,178.1,160,224.3,203l65.5-47.6c7.8-5.7,18.8-4,24.6,3.9c5.7,7.9,4,18.8-3.9,24.6l-77.2,56.2C775.7,733.7,772,734.8,768.4,734.8z" style="fill: rgb(255, 255, 255);"/><path d="M415.9,444.9c-0.5,0-1,0-1.4-0.1l-177.2-14.3c-9.7-0.8-16.9-9.3-16.1-18.9c0.8-9.7,9.1-17,18.9-16.1l177.2,14.3c9.7,0.8,16.9,9.3,16.1,18.9C432.7,437.9,425,444.9,415.9,444.9z" style="fill: rgb(255, 255, 255);"/><path d="M748.7,797.6c-18.6,0-36.8-8.9-47.9-16.9c-0.4-0.3-0.7-0.6-1.1-0.9L542.2,644.6c-7.4-6.3-8.2-17.4-1.9-24.8c6.3-7.4,17.4-8.2,24.8-1.9l156.8,134.6c3.3,2.2,26.3,16.8,37.7,5.5c11.7-11.6-2.3-27-3.9-28.7c-6.7-7-6.4-18.2,0.6-24.8c7-6.7,18.2-6.4,24.8,0.6c15.9,16.7,29.9,51.3,3.2,77.8C773.7,793.7,761.1,797.6,748.7,797.6z" style="fill: rgb(255, 255, 255);"/><path d="M685.9,851c-13,0-28.5-5-46.6-19.4c-24.7-19.8-159-136.4-164.7-141.4c-7.3-6.4-8.1-17.5-1.7-24.8c6.4-7.3,17.5-8.1,24.8-1.7c1.4,1.2,139.4,121.1,163.6,140.5c23.8,19,32.3,10.5,37.4,5.4c13.3-13.4,0.4-30.1-1.2-31.9c-6.1-7.5-5-18.6,2.5-24.7c7.5-6.1,18.6-5,24.7,2.5c12,14.8,27.3,50.3-1.2,78.9C716,842,703.3,851,685.9,851z" style="fill: rgb(255, 255, 255);"/><path d="M606.6,882c-18.8,0-36-9.7-45.5-18l-75-62.3c-7.5-6.2-8.5-17.3-2.3-24.7c6.2-7.5,17.3-8.5,24.7-2.3l75.3,62.6c3.8,3.3,22.4,17.6,36.4,2.8c10.2-10.8-4.1-27.8-4.7-28.6c-6.3-7.4-5.5-18.4,1.9-24.7c7.3-6.3,18.3-5.6,24.7,1.7c12.5,14.3,29.4,48.6,3.8,75.8C633.5,877.3,619.7,882,606.6,882z" style="fill: rgb(255, 255, 255);"/><path d="M519.8,890.9c-22.2,0-50.5-8.1-84.7-33.8c-7.8-5.8-9.3-16.8-3.5-24.6c5.8-7.8,16.8-9.3,24.6-3.5c64.8,48.6,93.6,16.6,94.7,15.2c6.2-7.3,17.3-8.3,24.7-2.2c7.4,6.1,8.6,16.9,2.6,24.3C577.9,866.8,557.9,890.9,519.8,890.9z" style="fill: rgb(255, 255, 255);"/><path d="M363.6,851.4c-11.4,0-22.4-3.5-31.9-10c-25.2-17.6-31.4-52.4-13.8-77.6l25.4-36.5c10.4-14.9,27.5-23.9,45.8-23.9c11.4,0,22.5,3.5,31.9,10c12.2,8.5,20.4,21.3,23,35.9c2.6,14.7-0.6,29.5-9.2,41.7l-25.4,36.5C399,842.5,381.9,851.4,363.6,851.4z M389.1,738.6c-6.7,0-13.1,3.3-16.9,8.8l-25.4,36.5c-6.5,9.3-4.2,22.2,5.1,28.7c9,6.3,22.4,3.8,28.7-5.1L406,771c3.1-4.5,4.3-10,3.4-15.4c-1-5.4-4-10.1-8.5-13.3C397.4,739.9,393.3,738.6,389.1,738.6z" style="fill: rgb(255, 255, 255);"/><path d="M298.9,814.3c-11.1,0-21.8-3.4-30.9-9.7c-24.5-17.1-30.5-50.9-13.5-75.4l19.1-27.5c10.1-14.5,26.7-23.2,44.5-23.2c11.1,0,21.8,3.4,30.9,9.7c11.9,8.3,19.8,20.7,22.4,34.9c2.5,14.2-0.6,28.6-8.9,40.5l-19.1,27.5C333.2,805.7,316.6,814.3,298.9,814.3z M318.1,713.7c-6.2,0-12.1,3-15.6,8.1l-19.1,27.5c-6,8.6-3.9,20.5,4.7,26.5c8.3,5.8,20.7,3.6,26.5-4.7l19.1-27.5c2.9-4.2,4-9.2,3.1-14.2c-0.9-5-3.7-9.4-7.9-12.3C325.7,714.9,322,713.7,318.1,713.7z" style="fill: rgb(255, 255, 255);"/><path d="M241.7,773.1c-10,0-19.7-3-28-8.8c-10.7-7.5-17.9-18.7-20.2-31.6c-2.3-12.9,0.6-25.9,8-36.6l12.5-18c9.1-13.1,24.2-21,40.2-21c10,0,19.7,3,28,8.8c22.1,15.4,27.6,46,12.1,68.1l-12.5,18C272.7,765.2,257.7,773.1,241.7,773.1z M254.3,692.3c-4.5,0-8.8,2.2-11.3,5.9l-12.5,18c-2.1,3-2.9,6.7-2.3,10.3c0.6,3.6,2.7,6.8,5.7,8.9c6.1,4.2,15,2.6,19.2-3.4l12.5-18c4.4-6.2,2.8-14.9-3.4-19.2C259.8,693.2,257.1,692.3,254.3,692.3z" style="fill: rgb(255, 255, 255);"/><path d="M422.5,882.1c-10,0-19.6-3-27.8-8.7c-22-15.3-27.4-45.7-12.1-67.7L404,775c9.1-13,24-20.8,39.9-20.8c10,0,19.6,3,27.8,8.7c10.7,7.4,17.8,18.6,20.1,31.4c2.3,12.8-0.6,25.7-8,36.4l-21.3,30.6C453.3,874.3,438.4,882.1,422.5,882.1z M443.9,789.4c-4.4,0-8.6,2.2-11.1,5.8l-21.3,30.6c-4.3,6.1-2.8,14.5,3.3,18.8c5.9,4.1,14.7,2.5,18.8-3.4l21.3-30.6c2.1-3,2.8-6.5,2.2-10.1c-0.6-3.5-2.6-6.6-5.6-8.7C449.3,790.2,446.6,789.4,443.9,789.4z" style="fill: rgb(255, 255, 255);"/><path d="M207.4,724.3c-3,0-6-0.8-8.8-2.4L136.5,686c-8.4-4.9-11.3-15.6-6.4-24c4.9-8.4,15.6-11.3,24-6.4l62.1,35.9c8.4,4.9,11.3,15.6,6.4,24C219.4,721.1,213.5,724.3,207.4,724.3z" style="fill: rgb(255, 255, 255);"/></g></g><path d="M 319.22918701171875 554.64794921875 L 272.33074951171875 517.8236694335938 L 272.0304870605469 518.0034790039062 C 274.6415100097656 521.5840454101562 277.5074462890625 525.9793701171875 280.6283264160156 531.189453125 L 301.1624450683594 565.469970703125 L 295.3804016113281 568.9334106445312 L 263.09930419921875 515.0420532226562 L 272.5358581542969 509.3894958496094 L 316.22747802734375 543.62353515625 L 316.5277404785156 543.4436645507812 L 307.1080322265625 488.6806640625 L 316.4759826660156 483.0692443847656 L 348.757080078125 536.9606323242188 L 342.4860534667969 540.7169799804688 L 321.6847229003906 505.99041748046875 C 319.3003845214844 502.0098876953125 316.882080078125 497.5834655761719 314.4297790527344 492.7110900878906 L 314.1380920410156 492.8858337402344 L 324.2734680175781 551.6264038085938 L 319.22918701171875 554.64794921875 ZM 384.255126953125 528.7545166015625 C 377.54180908203125 530.591064453125 371.68377685546875 529.9957275390625 366.6809997558594 526.968505859375 C 361.67822265625 523.9413452148438 358.18292236328125 518.7945556640625 356.1950988769531 511.5282287597656 C 354.1914367675781 504.2040100097656 354.40399169921875 497.894287109375 356.83282470703125 492.5990295410156 C 359.2616271972656 487.3038024902344 363.514404296875 483.8249816894531 369.59112548828125 482.16259765625 C 375.2820129394531 480.6057434082031 380.29840087890625 481.2447204589844 384.64031982421875 484.0794677734375 C 388.97576904296875 486.916015625 391.9826354980469 491.40155029296875 393.6608581542969 497.5361633300781 L 394.8509216308594 501.88629150390625 L 363.5606689453125 510.4462890625 C 365.1622009277344 515.7448120117188 367.61676025390625 519.4241943359375 370.9242858886719 521.4844360351562 C 374.2400207519531 523.5493774414062 378.2160339355469 523.9476928710938 382.85235595703125 522.6793212890625 C 387.7458801269531 521.3406372070312 392.30181884765625 518.9953002929688 396.5201721191406 515.6434326171875 L 398.1983947753906 521.7780151367188 C 396.0544738769531 523.4910888671875 393.96142578125 524.8723754882812 391.9192810058594 525.9217529296875 C 389.87713623046875 526.9711303710938 387.3224182128906 527.9154052734375 384.255126953125 528.7545166015625 M 371.0796203613281 487.94476318359375 C 367.43359375 488.94219970703125 364.85162353515625 490.9237365722656 363.3337097167969 493.8893737792969 C 361.81756591796875 496.8614501953125 361.4377136230469 500.50067138671875 362.1941833496094 504.8070068359375 L 385.95123291015625 498.307861328125 C 384.76556396484375 493.9737854003906 382.8891906738281 490.917236328125 380.3221130371094 489.1382141113281 C 377.7550354003906 487.3592224121094 374.6741943359375 486.9613952636719 371.0796203613281 487.94476318359375 ZM 427.3175354003906 470.89642333984375 C 429.3819580078125 470.5924377441406 431.26336669921875 470.4872131347656 432.9617919921875 470.58074951171875 L 432.9468078613281 477.27435302734375 C 430.9587707519531 477.1358642578125 429.2260437011719 477.1753845214844 427.7486267089844 477.3929443359375 C 423.9825744628906 477.9475402832031 420.9859924316406 479.9521789550781 418.7588806152344 483.4068298339844 C 416.5317687988281 486.86151123046875 415.7537841796875 490.8675842285156 416.4249267578125 495.42510986328125 L 420.1065368652344 520.4254760742188 L 413.042724609375 521.4656982421875 L 406.18212890625 474.8781433105469 L 412.00927734375 474.0200500488281 L 414.0909729003906 482.52752685546875 L 414.4273376464844 482.4779968261719 C 415.7085876464844 479.1895751953125 417.4484558105469 476.5445251464844 419.6469421386719 474.5428771972656 C 421.8388671875 472.5422058105469 424.3957214355469 471.32672119140625 427.3175354003906 470.89642333984375 ZM 467.72515869140625 516.7056274414062 C 460.9207458496094 517.0541381835938 455.5435791015625 515.2267456054688 451.5936279296875 511.2235412597656 C 447.64404296875 507.22698974609375 445.47283935546875 501.39373779296875 445.08001708984375 493.72381591796875 C 444.67730712890625 485.86077880859375 446.2601623535156 479.68505859375 449.82861328125 475.1966857910156 C 453.4040222167969 470.714599609375 458.6971435546875 468.29400634765625 465.70794677734375 467.9349670410156 C 467.9649963378906 467.8193664550781 470.2344970703125 467.94677734375 472.51641845703125 468.31719970703125 C 474.8050231933594 468.68731689453125 476.6086730957031 469.16900634765625 477.92742919921875 469.7623291015625 L 476.04974365234375 475.91644287109375 C 474.4464111328125 475.3710632324219 472.70538330078125 474.9395446777344 470.8266906738281 474.62188720703125 C 468.94097900390625 474.29791259765625 467.28240966796875 474.1725769042969 465.8509521484375 474.24591064453125 C 456.2967834472656 474.7352294921875 451.8319091796875 481.0752258300781 452.4562683105469 493.26593017578125 C 452.7522277832031 499.0450134277344 454.14447021484375 503.4195251464844 456.6329650878906 506.38946533203125 C 459.1281433105469 509.35906982421875 462.6627197265625 510.7267150878906 467.2367248535156 510.4924621582031 C 471.1582336425781 510.2916259765625 475.1363220214844 509.2401123046875 479.1709899902344 507.3379211425781 L 479.4942626953125 513.649658203125 C 476.4285888671875 515.442138671875 472.50555419921875 516.4608154296875 467.72515869140625 516.7056274414062 ZM 519.2281494140625 516.806396484375 L 518.1756591796875 510.0410461425781 L 517.8261108398438 510.0224609375 C 515.326416015625 512.8404541015625 512.8837890625 514.710205078125 510.4981994628906 515.631591796875 C 508.1059875488281 516.5526123046875 505.1656494140625 516.9204711914062 501.67724609375 516.7351684570312 C 497.01715087890625 516.487548828125 493.4261474609375 515.0917358398438 490.90423583984375 512.5476684570312 C 488.38897705078125 510.0039978027344 487.2491455078125 506.5152587890625 487.4847106933594 502.0815124511719 C 487.98944091796875 492.5815734863281 495.8497619628906 488.00885009765625 511.06573486328125 488.36328125 L 519.0582885742188 488.5275573730469 L 519.2131958007812 485.6116638183594 C 519.4094848632812 481.9169006347656 518.7587890625 479.1484680175781 517.2611083984375 477.306396484375 C 515.77001953125 475.4647216796875 513.2802734375 474.451171875 509.7918701171875 474.2658386230469 C 505.8707275390625 474.0575256347656 501.3731384277344 475.0235900878906 496.2991027832031 477.1640625 L 494.3918762207031 471.59503173828125 C 496.7754821777344 470.45989990234375 499.3675537109375 469.60955810546875 502.1681823730469 469.04400634765625 C 504.9691467285156 468.4718322753906 507.7576904296875 468.25946044921875 510.53375244140625 468.4069519042969 C 516.1392211914062 468.70477294921875 520.2271728515625 470.1703796386719 522.7977905273438 472.8038024902344 C 525.3683471679688 475.4372253417969 526.5076904296875 479.5000915527344 526.2159423828125 484.9923400878906 L 524.5107421875 517.0870361328125 L 519.2281494140625 516.806396484375 M 503.4077453613281 510.92877197265625 C 507.84149169921875 511.1643371582031 511.3877868652344 510.1343688964844 514.046630859375 507.8388671875 C 516.712158203125 505.5437316894531 518.1613159179688 502.2059020996094 518.39404296875 497.8254089355469 L 518.6195068359375 493.5813903808594 L 511.4736633300781 493.5021667480469 C 505.8043518066406 493.4012451171875 501.6767578125 494.06317138671875 499.0908508300781 495.4880065917969 C 496.5049743652344 496.9128112792969 495.1244812011719 499.27288818359375 494.94940185546875 502.5682373046875 C 494.8128662109375 505.137939453125 495.4877624511719 507.1365661621094 496.97412109375 508.5641174316406 C 498.4604797363281 509.99163818359375 500.6050109863281 510.7798767089844 503.4077453613281 510.92877197265625 ZM 572.0874633789062 518.1939697265625 L 571.703857421875 518.1236572265625 C 567.6015014648438 522.2381591796875 562.3240966796875 523.7041015625 555.87158203125 522.5214233398438 C 549.8125 521.410888671875 545.4807739257812 518.4751586914062 542.8764038085938 513.7142944335938 C 540.2642822265625 508.95880126953125 539.6583251953125 502.7613220214844 541.0585327148438 495.1219177246094 C 542.45751953125 487.48907470703125 545.2364501953125 481.8679504394531 549.3953247070312 478.25860595703125 C 553.54638671875 474.6545715332031 558.6383666992188 473.40545654296875 564.6712036132812 474.51116943359375 C 570.9532470703125 475.66259765625 575.3513793945312 478.8273620605469 577.86572265625 484.0054931640625 L 578.4165649414062 484.1064758300781 L 578.7344360351562 480.7080993652344 L 579.1639404296875 477.4216613769531 L 582.6181640625 458.57562255859375 L 589.63134765625 459.8610534667969 L 577.57763671875 525.62548828125 L 571.8726196289062 524.5798950195312 L 572.0874633789062 518.1939697265625 M 557.8331298828125 516.8114624023438 C 562.6265869140625 517.6900634765625 566.3379516601562 517.0215454101562 568.9671020507812 514.805908203125 C 571.6016845703125 512.5980224609375 573.4508056640625 508.5924377441406 574.5144653320312 502.7890930175781 L 574.7866821289062 501.3038330078125 C 575.98974609375 494.7398376464844 575.7567138671875 489.8544616699219 574.0874633789062 486.64764404296875 C 572.4170532226562 483.4473876953125 569.1884155273438 481.4085693359375 564.4014892578125 480.53118896484375 C 560.2833862304688 479.7763977050781 556.8392944335938 480.7989196777344 554.0691528320312 483.5987243652344 C 551.3002319335938 486.3919372558594 549.3809204101562 490.7066345214844 548.3112182617188 496.5427551269531 C 547.2271118164062 502.4575500488281 547.493896484375 507.1220703125 549.1115112304688 510.53631591796875 C 550.7291870117188 513.9505615234375 553.6363525390625 516.0422973632812 557.8331298828125 516.8114624023438 ZM 599.0049438476562 532.0928955078125 L 592.1737670898438 530.015625 L 605.8736572265625 484.9625244140625 L 612.7047729492188 487.0397644042969 L 599.0049438476562 532.0928955078125 M 609.0147705078125 472.5703430175781 C 609.4879760742188 471.0140380859375 610.2178344726562 469.98870849609375 611.204345703125 469.49432373046875 C 612.197265625 469.00189208984375 613.2677001953125 468.9302062988281 614.4158325195312 469.2793273925781 C 615.5128784179688 469.6129150390625 616.3475952148438 470.2708740234375 616.9198608398438 471.2532043457031 C 617.4857788085938 472.23358154296875 617.5360107421875 473.48919677734375 617.070556640625 475.01995849609375 C 616.6030883789062 476.55712890625 615.8594970703125 477.581787109375 614.8397216796875 478.09393310546875 C 613.8135986328125 478.6041259765625 612.751953125 478.69244384765625 611.6549072265625 478.35882568359375 C 610.5068359375 478.0097351074219 609.6613159179688 477.34149169921875 609.118408203125 476.35418701171875 C 608.5818481445312 475.3688049316406 608.5473022460938 474.1075134277344 609.0147705078125 472.5703430175781 ZM 629.3632202148438 538.1934204101562 C 630.5260620117188 538.6787719726562 631.6878662109375 539.0625 632.8486938476562 539.3447265625 C 634.00341796875 539.6243896484375 634.9361572265625 539.80419921875 635.6468505859375 539.8840942382812 L 633.5438842773438 544.9228515625 C 632.6864624023438 544.969482421875 631.5162963867188 544.8134155273438 630.0333862304688 544.45458984375 C 628.5541381835938 544.1044921875 627.2576904296875 543.6970825195312 626.1441040039062 543.2322998046875 C 617.7400512695312 539.7247924804688 615.3867797851562 533.5413818359375 619.0842895507812 524.6820068359375 L 629.8726196289062 498.8329772949219 L 623.6433715820312 496.233154296875 L 624.9683227539062 493.05853271484375 L 632.3375854492188 492.9267272949219 L 638.9901123046875 484.80218505859375 L 642.792236328125 486.3890380859375 L 638.5863037109375 496.4665832519531 L 651.20166015625 501.731689453125 L 649.06787109375 506.84429931640625 L 636.4525146484375 501.57916259765625 L 625.7797241210938 527.1513061523438 C 624.6859130859375 529.772216796875 624.4676513671875 532.0433959960938 625.1249389648438 533.9647827148438 C 625.7848510742188 535.8800659179688 627.1976318359375 537.2896118164062 629.3632202148438 538.1934204101562 ZM 688.933349609375 553.7505493164062 C 684.43212890625 559.9732055664062 679.35302734375 563.6961669921875 673.6959838867188 564.9193725585938 C 668.0350341796875 566.1480102539062 662.4415893554688 564.7637939453125 656.915771484375 560.7666015625 C 653.50732421875 558.3011474609375 651.0599365234375 555.3089599609375 649.5736083984375 551.7901000976562 C 648.0833740234375 548.2766723632812 647.7021484375 544.5040283203125 648.429931640625 540.47216796875 C 649.15625 536.4310302734375 650.970947265625 532.4037475585938 653.8740234375 528.3903198242188 C 658.375244140625 522.1676635742188 663.4357299804688 518.4476928710938 669.0555419921875 517.2304077148438 C 674.6753540039062 516.01318359375 680.2454833984375 517.4011840820312 685.7659912109375 521.3944091796875 C 691.108154296875 525.2587280273438 694.067626953125 530.102294921875 694.644287109375 535.9252319335938 C 695.217041015625 541.7535400390625 693.3134155273438 547.6953125 688.933349609375 553.7505493164062 M 659.8617553710938 532.7215576171875 C 656.33740234375 537.5938110351562 654.6261596679688 542.0126953125 654.7279663085938 545.9782104492188 C 654.829833984375 549.9437255859375 656.7713012695312 553.2940063476562 660.5524291992188 556.0291137695312 C 664.3389892578125 558.76806640625 668.1328125 559.57470703125 671.9339599609375 558.4488525390625 C 675.7311401367188 557.3284301757812 679.4017333984375 554.318603515625 682.9456176757812 549.4193115234375 C 686.454345703125 544.5686645507812 688.1387329101562 540.175537109375 687.9987182617188 536.2400512695312 C 687.8587036132812 532.3045654296875 685.8738403320312 528.95166015625 682.0440673828125 526.181396484375 C 678.257568359375 523.4423828125 674.5060424804688 522.6170654296875 670.7896728515625 523.7054443359375 C 667.0639038085938 524.7952880859375 663.4212646484375 527.8006591796875 659.8617553710938 532.7215576171875 Z" transform="matrix(1, 0, 0, 1, -155.56353759765625, 31.112703323364258)" style="fill: rgb(231, 111, 81); white-space: pre; color: rgb(51, 51, 51);"/><path d="M 326.009033203125 628 L 326.009033203125 567.0800170898438 L 331.489013671875 567.0800170898438 L 331.489013671875 622.77001953125 L 354.81903076171875 622.77001953125 L 354.81903076171875 628 L 326.009033203125 628 ZM 363.0718078613281 574.0499877929688 L 363.0718078613281 567.0800170898438 L 369.15179443359375 567.0800170898438 L 369.15179443359375 574.0499877929688 L 363.0718078613281 574.0499877929688 M 363.5018005371094 628 L 363.5018005371094 584.5 L 368.7218017578125 584.5 L 368.7218017578125 628 L 363.5018005371094 628 ZM 409.9626159667969 616.0599975585938 C 409.9626159667969 617.8200073242188 409.6292724609375 619.4766845703125 408.9626159667969 621.030029296875 C 408.3026123046875 622.5900268554688 407.3892822265625 623.9500122070312 406.2226257324219 625.1099853515625 C 405.0626220703125 626.27001953125 403.7059631347656 627.183349609375 402.1526184082031 627.8499755859375 C 400.5926208496094 628.5166625976562 398.9359436035156 628.8499755859375 397.1826171875 628.8499755859375 L 393.692626953125 628.8499755859375 C 391.93927001953125 628.8499755859375 390.2826232910156 628.5166625976562 388.7226257324219 627.8499755859375 C 387.1692810058594 627.183349609375 385.8092956542969 626.27001953125 384.6426086425781 625.1099853515625 C 383.48260498046875 623.9500122070312 382.56927490234375 622.5900268554688 381.9026184082031 621.030029296875 C 381.24261474609375 619.4766845703125 380.9126281738281 617.8200073242188 380.9126281738281 616.0599975585938 L 380.9126281738281 567.0800170898438 L 386.13262939453125 567.0800170898438 L 386.13262939453125 588.1500244140625 C 387.31927490234375 586.7366943359375 388.7492980957031 585.6333618164062 390.422607421875 584.8400268554688 C 392.095947265625 584.0466918945312 393.9092712402344 583.6500244140625 395.86260986328125 583.6500244140625 L 397.1826171875 583.6500244140625 C 398.9359436035156 583.6500244140625 400.5926208496094 583.9833374023438 402.1526184082031 584.6500244140625 C 403.7059631347656 585.316650390625 405.0626220703125 586.22998046875 406.2226257324219 587.3900146484375 C 407.3892822265625 588.5499877929688 408.3026123046875 589.9099731445312 408.9626159667969 591.469970703125 C 409.6292724609375 593.0233154296875 409.9626159667969 594.6799926757812 409.9626159667969 596.4400024414062 L 409.9626159667969 616.0599975585938 L 409.9626159667969 616.0599975585938 M 404.74261474609375 596.1400146484375 C 404.74261474609375 595.0933227539062 404.5426025390625 594.1099853515625 404.1426086425781 593.1900024414062 C 403.7492980957031 592.27001953125 403.2126159667969 591.469970703125 402.5326232910156 590.7899780273438 C 401.8526306152344 590.1099853515625 401.0526123046875 589.5700073242188 400.13262939453125 589.1699829101562 C 399.2126159667969 588.7766723632812 398.2292785644531 588.5800170898438 397.1826171875 588.5800170898438 L 393.692626953125 588.5800170898438 C 392.64593505859375 588.5800170898438 391.6626281738281 588.7766723632812 390.74261474609375 589.1699829101562 C 389.8226318359375 589.5700073242188 389.0226135253906 590.1099853515625 388.3426208496094 590.7899780273438 C 387.6626281738281 591.469970703125 387.12261962890625 592.27001953125 386.7226257324219 593.1900024414062 C 386.32928466796875 594.1099853515625 386.13262939453125 595.0933227539062 386.13262939453125 596.1400146484375 L 386.13262939453125 616.3599853515625 C 386.13262939453125 617.4066772460938 386.32928466796875 618.3900146484375 386.7226257324219 619.3099975585938 C 387.12261962890625 620.22998046875 387.6626281738281 621.030029296875 388.3426208496094 621.7100219726562 C 389.0226135253906 622.3900146484375 389.8226318359375 622.9299926757812 390.74261474609375 623.3300170898438 C 391.6626281738281 623.7233276367188 392.64593505859375 623.9199829101562 393.692626953125 623.9199829101562 L 397.1826171875 623.9199829101562 C 398.2292785644531 623.9199829101562 399.2126159667969 623.7233276367188 400.13262939453125 623.3300170898438 C 401.0526123046875 622.9299926757812 401.8526306152344 622.3900146484375 402.5326232910156 621.7100219726562 C 403.2126159667969 621.030029296875 403.7492980957031 620.22998046875 404.1426086425781 619.3099975585938 C 404.5426025390625 618.3900146484375 404.74261474609375 617.4066772460938 404.74261474609375 616.3599853515625 L 404.74261474609375 596.1400146484375 ZM 433.20220947265625 589.469970703125 C 432.155517578125 589.469970703125 431.1722106933594 589.6666870117188 430.252197265625 590.0599975585938 C 429.33221435546875 590.4600219726562 428.5321960449219 591 427.8522033691406 591.6799926757812 C 427.1722106933594 592.3599853515625 426.6322021484375 593.1599731445312 426.2322082519531 594.0800170898438 C 425.8388671875 595 425.6422119140625 595.9833374023438 425.6422119140625 597.030029296875 L 425.6422119140625 628 L 420.4222106933594 628 L 420.4222106933594 584.5 L 422.1622009277344 584.5 L 425.002197265625 588.9199829101562 C 426.1955261230469 587.306640625 427.6888732910156 586.0233154296875 429.4822082519531 585.0700073242188 C 431.2821960449219 584.1233520507812 433.24554443359375 583.6500244140625 435.3721923828125 583.6500244140625 L 438.43218994140625 583.6500244140625 L 438.43218994140625 589.469970703125 L 433.20220947265625 589.469970703125 ZM 474.4566345214844 616.0599975585938 C 474.4566345214844 617.8200073242188 474.123291015625 619.4766845703125 473.4566345214844 621.030029296875 C 472.796630859375 622.5900268554688 471.88330078125 623.9500122070312 470.7166442871094 625.1099853515625 C 469.556640625 626.27001953125 468.1999816894531 627.183349609375 466.6466369628906 627.8499755859375 C 465.0866394042969 628.5166625976562 463.4299621582031 628.8499755859375 461.6766357421875 628.8499755859375 L 458.1866455078125 628.8499755859375 C 456.43328857421875 628.8499755859375 454.7766418457031 628.5166625976562 453.2166442871094 627.8499755859375 C 451.6632995605469 627.183349609375 450.3033142089844 626.27001953125 449.1366271972656 625.1099853515625 C 447.97662353515625 623.9500122070312 447.06329345703125 622.5900268554688 446.3966369628906 621.030029296875 C 445.73663330078125 619.4766845703125 445.4066467285156 617.8200073242188 445.4066467285156 616.0599975585938 L 445.4066467285156 596.4400024414062 C 445.4066467285156 594.6799926757812 445.73663330078125 593.0233154296875 446.3966369628906 591.469970703125 C 447.06329345703125 589.9099731445312 447.97662353515625 588.5499877929688 449.1366271972656 587.3900146484375 C 450.3033142089844 586.22998046875 451.6632995605469 585.316650390625 453.2166442871094 584.6500244140625 C 454.7766418457031 583.9833374023438 456.43328857421875 583.6500244140625 458.1866455078125 583.6500244140625 L 461.6766357421875 583.6500244140625 C 463.4299621582031 583.6500244140625 465.0866394042969 583.9833374023438 466.6466369628906 584.6500244140625 C 468.1999816894531 585.316650390625 469.556640625 586.22998046875 470.7166442871094 587.3900146484375 C 471.88330078125 588.5499877929688 472.796630859375 589.9099731445312 473.4566345214844 591.469970703125 C 474.123291015625 593.0233154296875 474.4566345214844 594.6799926757812 474.4566345214844 596.4400024414062 L 474.4566345214844 606.6699829101562 L 450.62664794921875 606.6699829101562 L 450.62664794921875 616.3599853515625 C 450.62664794921875 617.4066772460938 450.82330322265625 618.3900146484375 451.2166442871094 619.3099975585938 C 451.61663818359375 620.22998046875 452.1566467285156 621.030029296875 452.8366394042969 621.7100219726562 C 453.5166320800781 622.3900146484375 454.316650390625 622.9299926757812 455.23663330078125 623.3300170898438 C 456.1566467285156 623.7233276367188 457.13995361328125 623.9199829101562 458.1866455078125 623.9199829101562 L 461.6766357421875 623.9199829101562 C 462.7232971191406 623.9199829101562 463.7066345214844 623.7233276367188 464.62664794921875 623.3300170898438 C 465.546630859375 622.9299926757812 466.3466491699219 622.3900146484375 467.0266418457031 621.7100219726562 C 467.7066345214844 621.030029296875 468.2433166503906 620.22998046875 468.6366271972656 619.3099975585938 C 469.03662109375 618.3900146484375 469.23663330078125 617.4066772460938 469.23663330078125 616.3599853515625 L 469.23663330078125 613.469970703125 L 474.4566345214844 614.3200073242188 L 474.4566345214844 616.0599975585938 L 474.4566345214844 616.0599975585938 M 469.23663330078125 596.1400146484375 C 469.23663330078125 595.0933227539062 469.03662109375 594.1099853515625 468.6366271972656 593.1900024414062 C 468.2433166503906 592.27001953125 467.7066345214844 591.469970703125 467.0266418457031 590.7899780273438 C 466.3466491699219 590.1099853515625 465.546630859375 589.5700073242188 464.62664794921875 589.1699829101562 C 463.7066345214844 588.7766723632812 462.7232971191406 588.5800170898438 461.6766357421875 588.5800170898438 L 458.1866455078125 588.5800170898438 C 457.13995361328125 588.5800170898438 456.1566467285156 588.7766723632812 455.23663330078125 589.1699829101562 C 454.316650390625 589.5700073242188 453.5166320800781 590.1099853515625 452.8366394042969 590.7899780273438 C 452.1566467285156 591.469970703125 451.61663818359375 592.27001953125 451.2166442871094 593.1900024414062 C 450.82330322265625 594.1099853515625 450.62664794921875 595.0933227539062 450.62664794921875 596.1400146484375 L 450.62664794921875 602.5999755859375 L 469.23663330078125 602.5999755859375 L 469.23663330078125 596.1400146484375 Z" transform="matrix(1, 0, 0, 1, -68.44795989990234, 0.0000035082096019323217)" style="fill: rgb(255, 255, 255); white-space: pre; color: rgb(51, 51, 51);"/></svg>